<svg xmlns="http://www.w3.org/2000/svg" viewBox="0 0 512 512" width="512" height="512">
  <path fill="#FFC107" d="M512 256c0 141.4-114.6 256-256 256S0 397.4 0 256 114.6 0 256 0s256 114.6 256 256z"/>
  <path fill="#FF9800" d="M512 256c0 141.4-114.6 256-256 256V0c141.4 0 256 114.6 256 256z"/>
  <g fill="#000">
    <circle cx="341.3" cy="175.3" r="35.3"/>
    <circle cx="170.7" cy="175.3" r="35.3"/>
    <path d="M256 512c-14.8 0-28.9-2.9-42.1-8.3-29.5-11.2-52.5-33.5-64.8-62.1-1.7-4.2-.9-9 2.1-12.7l64-74.3c4.5-5.2 11.1-8.2 18-8.2h53.4c6.9 0 13.5 3 18 8.2l64 74.3c3 3.5 3.8 8.5 2.1 12.7-12.4 28.6-35.3 50.9-64.8 62.1-13.2 5.4-27.3 8.3-42.1 8.3zm-7.3-122.5c9.6 11.1 25.5 11.1 35.1 0l64-74.3c5.8-6.8 5.8-17.1 0-23.8s-15.3-6.8-21.1 0l-32.3 37.5c-6.8-4.9-14.7-8.1-23-9.2v-56.1h-32v56.1c-8.3 1.1-16.2 4.3-23 9.2l-32.3-37.5c-5.8-6.8-15.3-6.8-21.1 0s-5.8 17.1 0 23.8l64 74.3c9.6 11.1 25.5 11.1 35.1 0z"/>
  </g>
</svg>
